<?xml version="1.0" standalone="no"?>
<!DOCTYPE svg PUBLIC "-//W3C//DTD SVG 20010904//EN"
 "http://www.w3.org/TR/2001/REC-SVG-20010904/DTD/svg10.dtd">
<svg version="1.0" xmlns="http://www.w3.org/2000/svg"
 width="533.000000pt" height="533.000000pt" viewBox="0 0 533.000000 533.000000"
 preserveAspectRatio="xMidYMid meet">
<metadata>
Created by potrace 1.11, written by Peter Selinger 2001-2013
</metadata>
<g transform="translate(0.000000,533.000000) scale(0.100000,-0.100000)"
fill="#000000" stroke="none">
<path d="M307 5274 c-76 -28 -144 -57 -151 -63 -25 -21 -46 -78 -46 -126 0
-33 30 -137 100 -347 55 -166 99 -301 98 -302 -24 -13 -75 -33 -178 -71 -68
-25 -126 -47 -127 -49 -6 -6 338 -1030 354 -1055 8 -13 32 -31 54 -40 l39 -16
0 -190 c6 -2144 7 -2247 29 -2305 30 -81 74 -145 156 -230 69 -71 75 -80 100
-165 15 -49 35 -117 44 -150 24 -79 61 -165 72 -165 15 0 20 42 15 143 -2 53
-1 97 2 97 3 0 14 -7 24 -17 17 -15 18 -12 19 83 0 54 2 164 4 244 9 377 19
853 30 1335 2 127 7 345 11 485 8 340 12 549 13 641 l1 77 61 22 c34 13 64 19
68 14 4 -5 34 -43 67 -84 32 -41 67 -84 76 -95 9 -11 83 -104 165 -206 146
-185 183 -230 222 -279 25 -31 713 -893 749 -939 223 -281 465 -581 467 -579
2 2 5 18 8 36 3 19 7 36 9 38 3 2 31 -32 63 -76 32 -43 65 -81 74 -83 21 -4
61 10 83 30 29 26 21 57 -29 125 -26 34 -73 98 -104 140 -32 42 -59 85 -60 95
-1 10 2 54 6 98 13 109 8 178 -15 257 -17 56 -40 94 -132 215 -61 82 -120 160
-132 174 -11 15 -29 37 -38 50 -10 13 -102 135 -205 271 -103 135 -227 297
-274 360 -48 62 -133 174 -189 248 -57 74 -144 189 -194 255 -50 66 -93 122
-96 125 -8 7 -184 242 -192 256 -5 6 -1 29 8 49 8 20 13 49 11 64 -3 15 -82
259 -177 543 l-172 517 -79 -30 c-44 -16 -114 -42 -157 -58 l-78 -29 -44 131
c-24 73 -44 134 -45 137 -3 20 -111 331 -122 353 -21 41 -70 84 -101 89 -18 2
-80 -16 -165 -48z"/>
<path d="M1490 4766 l0 -552 80 -240 c56 -171 81 -260 84 -307 l4 -67 109
-142 c60 -79 167 -219 238 -313 71 -93 192 -253 270 -355 78 -102 206 -270
285 -375 79 -104 146 -192 150 -195 3 -3 23 -29 44 -57 21 -29 43 -53 50 -53
38 0 182 230 200 321 3 13 9 47 15 74 5 28 8 91 7 140 -10 304 -202 555 -498
651 l-56 19 0 472 0 473 52 1 c68 2 170 -1 173 -5 3 -2 6 -29 18 -166 10 -113
5 -105 65 -105 39 0 54 4 55 15 9 53 33 192 41 227 5 25 10 31 28 27 11 -2 44
-6 71 -10 93 -10 280 -57 315 -79 4 -3 4 -22 -1 -42 -5 -21 -11 -51 -14 -68
-3 -16 -11 -55 -19 -86 l-13 -56 48 -16 c25 -9 49 -17 52 -17 5 0 31 44 89
150 37 65 36 65 129 9 82 -49 200 -135 247 -179 l23 -21 -34 -47 c-18 -26 -49
-68 -67 -94 l-33 -48 34 -35 c19 -19 38 -35 42 -35 5 0 47 27 93 61 47 33 90
59 97 56 19 -7 135 -174 184 -264 l41 -76 -88 -64 c-81 -58 -88 -65 -80 -86 6
-12 15 -34 21 -50 12 -30 -2 -29 164 -7 42 5 62 4 67 -4 17 -25 56 -213 63
-303 l5 -62 -84 -25 c-46 -14 -89 -26 -94 -26 -18 0 -26 -22 -27 -72 l-1 -48
85 -26 c47 -14 94 -28 104 -30 15 -5 17 -14 12 -67 -3 -34 -10 -87 -16 -117
-7 -30 -12 -59 -13 -65 -8 -48 -43 -145 -53 -145 -6 0 -40 7 -75 15 -124 28
-125 28 -137 -3 -6 -15 -15 -37 -21 -49 -8 -20 -1 -28 63 -78 40 -31 79 -60
86 -65 13 -7 12 -14 -5 -51 -21 -47 -148 -243 -180 -277 l-20 -21 -89 59 c-50
33 -94 60 -100 60 -5 -1 -25 -16 -44 -35 l-34 -34 57 -97 c31 -53 56 -100 56
-105 0 -22 -312 -242 -323 -228 -2 2 -34 48 -71 102 -37 53 -71 97 -76 97 -5
0 -28 -7 -50 -16 -44 -18 -45 -22 -30 -105 5 -30 12 -67 14 -84 3 -16 8 -42
11 -57 5 -23 2 -27 -29 -38 l-35 -11 35 -46 c51 -67 53 -73 51 -159 -3 -93
-26 -150 -82 -208 -88 -89 -254 -123 -376 -76 -67 25 -80 36 -154 130 -72 92
-245 309 -262 330 -7 8 -53 67 -103 130 -50 63 -99 124 -108 135 -41 49 -680
853 -698 877 -10 15 -22 28 -27 28 -4 0 -6 -510 -5 -1132 l3 -1133 675 0 c606
0 791 4 870 19 14 3 57 10 95 16 39 6 108 20 155 31 47 11 92 22 100 24 34 7
265 87 308 106 200 90 352 173 487 267 388 270 690 626 891 1050 30 62 54 115
54 118 0 3 6 20 14 37 27 59 66 178 96 290 27 105 32 125 45 195 16 81 17 91
35 242 8 77 6 501 -4 555 -3 17 -10 66 -16 110 -6 44 -27 144 -46 223 -93 384
-260 721 -509 1032 -110 138 -320 348 -408 409 -12 9 -31 24 -42 34 -20 18
-244 168 -300 200 -155 90 -387 187 -575 242 -134 38 -270 67 -395 81 -27 3
-61 8 -75 11 -14 3 -348 7 -742 9 l-718 3 0 -553z"/>
</g>
</svg>
