<svg xmlns="http://www.w3.org/2000/svg" xmlns:xlink="http://www.w3.org/1999/xlink" viewBox="0 0 79.49 103.53">
  <defs>
    <style>
      .cls-3{fill:#dd1d3e}
    </style>
    <linearGradient id="New_Gradient_Swatch_1" y1="71.57" x2="79.49" y2="71.57" gradientUnits="userSpaceOnUse">
      <stop offset="0" stop-color="#213a63"/>
      <stop offset="1" stop-color="#1a3157"/>
    </linearGradient>
    <linearGradient id="New_Gradient_Swatch_1-2" x1="7.23" y1="46.05" x2="44.16" y2="46.05" xlink:href="#New_Gradient_Swatch_1"/>
    <linearGradient id="New_Gradient_Swatch_1-3" x1="13.91" y1="6.84" x2="29.93" y2="6.84" xlink:href="#New_Gradient_Swatch_1"/>
  </defs>
  <g style="isolation:isolate">
    <path d="M79.34 41.57c-.09-1.08-.72-2-1.81-2-24 1.36-36.46 6.72-47.48 12.15-8.06 4-15.37 8-25.9 10.49-2.79.7-4.15 1.34-4.15 4.73a20.56 20.56 0 0 0 .77 5c.45 1.71 8 19.1 9.71 19.24l25.59 2 36.26 10.32a2.3 2.3 0 0 0 2.09-3.5l-3.25-7c-.5-.74-5.37-1.67-4.93-2.45 10.14-17.66 14.08-37.24 13.1-48.98z" fill="url(#New_Gradient_Swatch_1)"/>
    <path class="cls-3" d="M32 15.42h-4.87a2.48 2.48 0 0 0-2.47 2.47v12.66h9.8V17.89A2.48 2.48 0 0 0 32 15.42z"/>
    <path d="M71.8 52.55a.84.84 0 1 0-1.68 0 2.88 2.88 0 0 1-2 2.75v-5.79a1.91 1.91 0 1 0-2.76-1.71 1.89 1.89 0 0 0 1.08 1.71v5.79a2.88 2.88 0 0 1-2-2.75.84.84 0 0 0-1.68 0 4.56 4.56 0 0 0 9.12 0z" fill="#191919"/>
    <path class="cls-3" d="M70.8 51.55a.84.84 0 1 0-1.68 0 2.88 2.88 0 0 1-2 2.75v-5.79a1.91 1.91 0 1 0-2.76-1.71 1.89 1.89 0 0 0 1.08 1.71v5.79a2.88 2.88 0 0 1-2-2.75.84.84 0 0 0-1.68 0 4.56 4.56 0 0 0 9.12 0z"/>
    <path d="M42 38.08h-7.5V33h-9.8v5.12H16a3.93 3.93 0 0 0-1.86.57l-5.46 3.65a3.33 3.33 0 0 0-1.45 2.73v14.08c7.26-2.11 13-5 19-8l3.82-1.89a118.37 118.37 0 0 1 14.11-6v-3A2.2 2.2 0 0 0 42 38.08z" fill="url(#New_Gradient_Swatch_1-2)"/>
    <path d="M27.57 9a3.91 3.91 0 0 0 .29-1.45A3.82 3.82 0 0 0 24 3.7h-.2a5.06 5.06 0 1 0-2.88 6A3.79 3.79 0 0 0 24 11.32a3.63 3.63 0 0 0 1.19-.21 1.49 1.49 0 0 0 0 .21A2.36 2.36 0 1 0 27.57 9z" fill="url(#New_Gradient_Swatch_1-3)"/>
    <path class="cls-3" d="M41.09 44.45l-.09-.1-24.37.54s-.82-.31-2.72.76c-1.56.88-5.34 3.56-6.68 4.51v9c7.26-2.11 13-5 19-8l3.82-1.89c3.44-1.65 7.02-3.27 11.04-4.82z"/>
    <path d="M34.46 30.55V17.89a2.47 2.47 0 0 0-1.41-2.22c.2 4.16-.3 13.41-8.39 13.78v1.1h9.8z" style="mix-blend-mode:overlay"/>
    <path class="cls-3" d="M74.13 73.28c-12 1.54-51.27 6.85-64.54 12a10.41 10.41 0 0 0-2.34 1.21c1.4 2.69 2.64 4.68 3.23 4.72l25.59 2 36.26 10.32a2.3 2.3 0 0 0 2.09-3.53l-3.25-7c-.5-.74-5.37-1.67-4.93-2.45a104.41 104.41 0 0 0 7.89-17.27z"/>
  </g>
</svg>
